<svg width="20" height="20" viewBox="0 0 20 20" fill="none" xmlns="http://www.w3.org/2000/svg">
<path d="M9.99985 14.9091C12.711 14.9091 14.9089 12.7113 14.9089 10.0001C14.9089 7.28891 12.711 5.09106 9.99985 5.09106C7.28867 5.09106 5.09082 7.28891 5.09082 10.0001C5.09082 12.7113 7.28867 14.9091 9.99985 14.9091Z" fill="#2D2C2E" stroke="#2D2C2E" stroke-linecap="round" stroke-linejoin="round"/>
<path d="M18.1816 10H18.9998Z" fill="#2D2C2E"/>
<path d="M18.1816 10H18.9998" stroke="#2D2C2E" stroke-linecap="round" stroke-linejoin="round"/>
<path d="M10 1.81817V1Z" fill="#2D2C2E"/>
<path d="M10 1.81817V1" stroke="#2D2C2E" stroke-linecap="round" stroke-linejoin="round"/>
<path d="M10 18.9998V18.1816Z" fill="#2D2C2E"/>
<path d="M10 18.9998V18.1816" stroke="#2D2C2E" stroke-linecap="round" stroke-linejoin="round"/>
<path d="M16.5418 16.5412L15.7236 15.723Z" fill="#2D2C2E"/>
<path d="M16.5418 16.5412L15.7236 15.723" stroke="#2D2C2E" stroke-linecap="round" stroke-linejoin="round"/>
<path d="M16.5457 3.4552L15.7275 4.27337Z" fill="#2D2C2E"/>
<path d="M16.5457 3.4552L15.7275 4.27337" stroke="#2D2C2E" stroke-linecap="round" stroke-linejoin="round"/>
<path d="M3.45459 16.5412L4.27276 15.723Z" fill="#2D2C2E"/>
<path d="M3.45459 16.5412L4.27276 15.723" stroke="#2D2C2E" stroke-linecap="round" stroke-linejoin="round"/>
<path d="M3.45459 3.4552L4.27276 4.27337Z" fill="#2D2C2E"/>
<path d="M3.45459 3.4552L4.27276 4.27337" stroke="#2D2C2E" stroke-linecap="round" stroke-linejoin="round"/>
<path d="M1 10H1.81817Z" fill="#2D2C2E"/>
<path d="M1 10H1.81817" stroke="#2D2C2E" stroke-linecap="round" stroke-linejoin="round"/>
</svg>
